<svg width="197" height="56" viewBox="0 0 197 56" fill="none" xmlns="http://www.w3.org/2000/svg">
<path d="M4 49.0612L6.19958 48.7114C8.43407 48.3615 8.85304 47.8368 8.85304 44.5131V24.8163L4.17457 24.3265V22.4373C9.62115 21.3878 14.8233 19.0088 18.4893 15.5102L20.4445 16V44.5131C20.4445 47.8368 20.9333 48.3615 23.063 48.7114L25.1928 49.0612V50.9505H4V49.0612Z" fill="black"/>
<path d="M27.532 33.8776C27.532 21.1779 36.8191 15.2653 45.4079 15.2653C54.2412 15.2653 62.9347 21.5627 62.9347 33.4228C62.9347 46.1225 53.5429 51.6852 44.954 51.6852C35.5971 51.6502 27.532 45.7376 27.532 33.8776ZM51.0989 34.0525C51.0989 19.6385 49.0739 17.9242 45.2334 17.9242C40.7295 17.9242 39.3678 21.1429 39.3678 33.2128C39.3678 47.1021 41.3928 48.9913 45.2334 48.9913C49.7373 48.9913 51.0989 45.5977 51.0989 34.0525Z" fill="black"/>
<path d="M85.7685 24.0466C81.1599 24.0466 78.3318 26.9854 78.3318 33.5627C78.3318 39.7201 80.8107 43.2886 85.9082 43.2886C90.3772 43.2886 92.053 40.2799 92.7513 36.7113L101.864 38.9154C100.712 46.9621 95.7888 52 85.9431 52C74.9801 52 68.137 45.9125 68.137 34.0874C68.137 22.2974 74.8404 15.3702 85.8733 15.3702C96.1729 15.3702 100.537 20.2682 101.794 28.6647L92.6116 30.414C91.7737 26.6705 90.1677 24.0466 85.7685 24.0466Z" fill="black"/>
<path d="M116.074 50.9504H106.158V4H116.074V50.9504Z" fill="black"/>
<path d="M143.935 41.7493H143.202C141.247 48.4665 136.987 52 131.541 52C124.977 52 121.625 47.312 121.625 39.7901V16.2799H131.541V36.9913C131.541 40.5598 133.147 42.9738 136.778 42.9738C141.002 42.9738 143.621 39.965 143.621 35.5919V16.2799H153.606V50.9505H143.9V41.7493H143.935Z" fill="black"/>
<path d="M169.108 25.0612H169.772C171.587 18.9738 175.393 15.3353 180.944 15.3353C188.52 15.3353 192.85 21.7726 192.85 33.7026C192.85 45.6327 188.381 52 180.944 52C175.183 52 171.447 47.9767 169.702 41.9242H169.108V50.9854H159.193V4H169.108V25.0612ZM183.039 33.7026C183.039 27.3353 180.909 24.3265 176.196 24.3265C171.831 24.3265 169.108 27.4752 169.108 32.4431V35.137C169.108 39.965 171.866 43.1837 176.126 43.1837C180.944 43.1837 183.039 40.07 183.039 33.7026Z" fill="black"/>
</svg>
