<?xml version="1.0" encoding="utf-8"?>
<!-- Generator: Adobe Illustrator 21.0.0, SVG Export Plug-In . SVG Version: 6.00 Build 0)  -->
<svg version="1.1" width="100px" baseProfile="tiny" id="Layer_1" xmlns="http://www.w3.org/2000/svg" xmlns:xlink="http://www.w3.org/1999/xlink"
	 x="0px" y="0px" viewBox="0 0 247 70" xml:space="preserve">
<g>
	<path fill="#1B75BC" d="M27.3,62.6V16H10.7V6.5h44.6V16H38.6v46.6H27.3z"/>
	<path fill="#1B75BC" d="M68.4,62.6H57.7V22h10v5.8c1.7-2.7,3.2-4.5,4.6-5.4c1.4-0.9,2.9-1.3,4.6-1.3c2.4,0,4.8,0.7,7.1,2l-3.3,9.4
		c-1.8-1.2-3.5-1.8-5-1.8c-1.5,0-2.8,0.4-3.8,1.2c-1,0.8-1.9,2.3-2.5,4.5c-0.6,2.2-0.9,6.7-0.9,13.6V62.6z"/>
	<path fill="#1B75BC" d="M115.4,62.6v-6.1c-1.5,2.2-3.4,3.9-5.8,5.1c-2.4,1.2-5,1.9-7.6,1.9c-2.7,0-5.2-0.6-7.3-1.8
		c-2.2-1.2-3.7-2.9-4.7-5c-1-2.2-1.5-5.2-1.5-9V22h10.7v18.7c0,5.7,0.2,9.2,0.6,10.5c0.4,1.3,1.1,2.3,2.2,3.1c1,0.8,2.4,1.1,4,1.1
		c1.8,0,3.5-0.5,4.9-1.5c1.5-1,2.4-2.3,3-3.7c0.5-1.5,0.8-5.1,0.8-11V22h10.7v40.6H115.4z"/>
	<path fill="#1B75BC" d="M160,49.7l10.7,1.8c-1.4,3.9-3.6,6.9-6.5,9c-3,2.1-6.7,3.1-11.2,3.1c-7.1,0-12.3-2.3-15.7-6.9
		c-2.7-3.7-4-8.4-4-14c0-6.7,1.8-12,5.3-15.8c3.5-3.8,8-5.7,13.4-5.7c6,0,10.8,2,14.3,6c3.5,4,5.2,10.1,5,18.3h-26.9
		c0.1,3.2,0.9,5.7,2.6,7.4c1.7,1.8,3.7,2.7,6.2,2.7c1.7,0,3.1-0.5,4.2-1.4C158.5,53.2,159.4,51.7,160,49.7z M160.6,38.8
		c-0.1-3.1-0.9-5.5-2.4-7.1c-1.5-1.6-3.4-2.4-5.6-2.4c-2.3,0-4.3,0.9-5.8,2.6c-1.5,1.7-2.3,4-2.3,7H160.6z"/>
	<path fill="#F15A29" d="M180,16.4V6.5h10.7v9.9H180z M180,62.6V22h10.7v40.6H180z"/>
	<path fill="#F15A29" d="M238.8,62.6H228V41.8c0-4.4-0.2-7.2-0.7-8.5c-0.5-1.3-1.2-2.3-2.2-3c-1-0.7-2.3-1.1-3.7-1.1
		c-1.9,0-3.5,0.5-5,1.5c-1.5,1-2.5,2.4-3,4.1c-0.5,1.7-0.8,4.8-0.8,9.3v18.4h-10.7V22h10v6c3.5-4.6,8-6.9,13.4-6.9
		c2.4,0,4.5,0.4,6.5,1.3c2,0.9,3.4,1.9,4.5,3.3c1,1.3,1.7,2.8,2.1,4.5c0.4,1.7,0.6,4.1,0.6,7.2V62.6z"/>
</g>
</svg>
