<svg width="146" height="30" viewBox="0 0 146 30" fill="none" xmlns="http://www.w3.org/2000/svg">
<path fill-rule="evenodd" clip-rule="evenodd" d="M0.296875 0V29.539H72.8579V0H0.297875H0.296875ZM17.5449 15.478C17.5449 16.246 17.3069 16.955 17.0699 17.605C16.8319 18.255 16.4149 18.787 15.9399 19.259C15.471 19.7337 14.9017 20.0973 14.2739 20.323C13.55 20.59 12.7854 20.7297 12.0139 20.736C11.1809 20.736 10.4079 20.618 9.75387 20.323C9.11525 20.0907 8.54348 19.7051 8.08887 19.2C7.61287 18.727 7.37488 18.196 7.13688 17.546C6.89888 16.896 6.83988 16.187 6.83988 15.419V7.68H9.21887V15.42C9.21887 15.892 9.21887 16.364 9.33788 16.719C9.45688 17.132 9.63488 17.428 9.87288 17.723C10.1109 18.019 10.4079 18.196 10.7649 18.373C11.1219 18.55 11.5379 18.609 12.0149 18.609C12.4899 18.609 12.9059 18.55 13.2629 18.373C13.6199 18.196 13.9169 18.019 14.2149 17.723C14.4529 17.428 14.7499 17.133 14.9279 16.719C15.0479 16.305 15.2259 15.892 15.2259 15.419V7.68H17.6049V15.478H17.5449ZM27.7749 20.677C27.5369 20.677 27.4179 20.618 27.2399 20.5C27.0931 20.4133 26.9704 20.2913 26.8829 20.145L24.1469 16.01C24.0424 15.8419 23.9229 15.6836 23.7899 15.537C23.6709 15.419 23.5519 15.36 23.3149 15.36H22.3029V20.677H19.9239V7.68H23.7899C24.6829 7.68 25.3959 7.798 26.0499 7.975C26.7049 8.153 27.1799 8.448 27.5969 8.743C28.0129 9.098 28.3109 9.453 28.4889 9.925C28.6669 10.398 28.7859 10.87 28.7859 11.402C28.7859 11.815 28.7259 12.229 28.6079 12.642C28.4779 13.019 28.298 13.3768 28.0729 13.706C27.8349 14.001 27.5369 14.296 27.1799 14.533C26.8239 14.769 26.4069 14.947 25.9909 15.123C26.2879 15.301 26.5859 15.596 26.7639 15.892L29.9759 20.677H27.7759H27.7749ZM40.7409 18.314C40.5629 18.787 40.2059 19.2 39.8489 19.495C39.4329 19.85 38.9569 20.145 38.3619 20.323C37.7061 20.5206 37.0247 20.62 36.3399 20.618H31.2249V7.68H35.9229C36.7559 7.68 37.4699 7.798 38.0649 7.975C38.6589 8.153 39.1349 8.389 39.5509 8.685C39.9079 8.98 40.2059 9.335 40.3839 9.748C40.5629 10.161 40.6819 10.634 40.6819 11.166C40.6819 11.461 40.6219 11.756 40.5619 12.052C40.4592 12.3259 40.3192 12.5844 40.1459 12.82C39.9521 13.0804 39.71 13.3011 39.4329 13.47C39.1131 13.6626 38.7739 13.8208 38.4209 13.942C40.2059 14.356 41.0979 15.301 41.0979 16.778C41.0379 17.368 40.9189 17.9 40.7409 18.314ZM52.5769 20.677C52.3979 20.677 52.2199 20.559 52.0409 20.5C51.9219 20.382 51.8039 20.382 51.7439 20.264L50.7919 17.724H45.4399L44.4879 20.204C44.4279 20.323 44.3689 20.441 44.1909 20.559C44.0709 20.677 43.8929 20.677 43.7149 20.677H41.8699L46.9259 7.68H49.3649L54.4199 20.677H52.5769ZM66.9099 20.677H65.4239C65.2449 20.677 65.0669 20.618 64.9479 20.559C64.8279 20.499 64.7099 20.382 64.5909 20.204L57.8109 11.638C57.8109 11.815 57.8709 11.993 57.9299 12.17C57.9889 12.347 57.9889 12.524 57.9889 12.702V20.677H55.6099V7.68H57.0369C57.1569 7.68 57.2159 7.74 57.2749 7.74C57.3349 7.74 57.3949 7.798 57.4539 7.798C57.5139 7.798 57.5729 7.858 57.6319 7.916L57.8109 8.094L64.5909 16.66C64.5909 16.423 64.5309 16.246 64.5309 16.069V7.68H66.9109V20.677H66.9099Z" fill="#6311F4"/>
<path fill-rule="evenodd" clip-rule="evenodd" d="M37.6477 12.997C38.0647 12.702 38.3017 12.17 38.3017 11.52C38.3017 10.87 38.1237 10.28 37.7077 9.984C37.3507 9.689 36.7557 9.452 35.9227 9.452H33.6027V13.588H35.8037C36.6367 13.588 37.2317 13.292 37.6477 12.997ZM48.4127 10.811C48.3527 10.575 48.2347 10.279 48.1747 9.984C48.1157 10.279 47.9967 10.574 47.9377 10.811C47.8777 11.047 47.7587 11.401 47.6997 11.579L46.0937 15.951H50.1977L48.6507 11.579C48.5317 11.402 48.4727 11.107 48.4127 10.811ZM38.1237 15.478C37.9199 15.2742 37.6771 15.1136 37.4097 15.006C37.0506 14.8589 36.6677 14.7786 36.2797 14.769H33.6037V18.905H36.3397C36.7284 18.902 37.1126 18.8214 37.4697 18.668C37.7371 18.5604 37.9799 18.3998 38.1837 18.196C38.3617 18.019 38.4807 17.782 38.5997 17.546C38.6597 17.31 38.7187 17.073 38.7187 16.778C38.7187 16.483 38.6587 16.246 38.5987 16.01C38.4207 15.833 38.3017 15.596 38.1237 15.478ZM26.4067 11.638C26.4067 10.988 26.1687 10.398 25.7527 10.043C25.3367 9.689 24.6827 9.453 23.7897 9.453H22.3027V13.588H23.7897C24.2657 13.588 24.6227 13.706 24.9797 13.588C25.3367 13.47 25.5747 13.411 25.8127 13.174C26.0497 12.997 26.1687 12.761 26.2877 12.524C26.3477 12.229 26.4077 11.993 26.4077 11.638H26.4067ZM72.2627 0V29.539H145.419V0H72.2627ZM143.04 27.176H74.6417V2.363H143.04V27.176Z" fill="#6311F4"/>
<path fill-rule="evenodd" clip-rule="evenodd" d="M84.5141 15.9501V20.6771H82.7891V7.9751H86.5361C87.3691 7.9751 88.0231 8.0941 88.6181 8.2711C89.2131 8.4481 89.6881 8.7431 90.1051 9.0391C90.5211 9.3931 90.8191 9.8071 90.9971 10.2791C91.1761 10.7521 91.2951 11.2841 91.2951 11.8751C91.2951 12.4651 91.1751 12.9971 90.9971 13.4701C90.7688 13.929 90.4676 14.3478 90.1051 14.7101C89.6891 15.0651 89.2131 15.3601 88.6181 15.5371C87.9624 15.735 87.281 15.8348 86.5961 15.8331H84.5141V15.9511V15.9501ZM84.5141 14.5331H86.5961C87.0721 14.5331 87.5481 14.4731 87.9041 14.3561C88.2611 14.2381 88.6181 14.0601 88.8561 13.8241C89.0941 13.5881 89.3321 13.2921 89.4511 12.9971C89.5701 12.7021 89.6291 12.2881 89.6291 11.9341C89.6291 11.1071 89.3911 10.5161 88.8561 10.0441C88.3801 9.5711 87.6071 9.3341 86.5961 9.3341H84.5141V14.5331ZM97.3611 20.6771H95.6361V7.9751H97.3611V20.6771ZM103.309 15.9501V20.6771H101.584V7.9751H105.331C106.164 7.9751 106.818 8.0941 107.412 8.2711C108.007 8.4481 108.483 8.7431 108.899 9.0391C109.316 9.3931 109.613 9.8071 109.792 10.2791C109.97 10.7521 110.089 11.2841 110.089 11.8751C110.089 12.4651 109.97 12.9971 109.792 13.4701C109.564 13.9291 109.262 14.3479 108.899 14.7101C108.483 15.0651 108.007 15.3601 107.412 15.5371C106.756 15.735 106.075 15.8348 105.39 15.8331H103.309V15.9511V15.9501ZM103.309 14.5331H105.39C105.866 14.5331 106.342 14.4731 106.699 14.3561C107.056 14.2381 107.412 14.0601 107.65 13.8241C107.888 13.5881 108.126 13.2921 108.245 12.9971C108.365 12.7021 108.424 12.2881 108.424 11.9341C108.424 11.1071 108.186 10.5161 107.65 10.0441C107.175 9.5711 106.401 9.3341 105.39 9.3341H103.309V14.5331ZM122.579 7.9751V9.3931H116.453V13.5881H121.449V14.9471H116.453V19.2591H122.579V20.6771H114.728V7.9751H122.579ZM128.705 15.3601V20.6771H126.98V7.9751H130.608C131.441 7.9751 132.095 8.0351 132.69 8.2121C133.285 8.3891 133.76 8.6251 134.177 8.9211C134.534 9.2161 134.831 9.5711 135.009 10.0431C135.188 10.4571 135.307 10.9881 135.307 11.5201C135.307 11.9931 135.247 12.4061 135.069 12.7601C134.949 13.1741 134.712 13.5291 134.474 13.8241C134.177 14.1191 133.879 14.4141 133.463 14.5921C133.047 14.8281 132.63 15.0061 132.154 15.0651C132.392 15.1831 132.571 15.3601 132.749 15.5961L136.496 20.6181H134.95C134.811 20.6219 134.673 20.5917 134.549 20.53C134.425 20.4682 134.317 20.377 134.236 20.2641L130.906 15.7141C130.786 15.5961 130.668 15.4781 130.549 15.4191C130.429 15.3601 130.251 15.3601 130.013 15.3601H128.705ZM128.705 14.1201H130.489C131.024 14.1201 131.441 14.0601 131.798 13.9421C132.154 13.8241 132.511 13.6471 132.749 13.4111C132.987 13.1741 133.225 12.9381 133.344 12.6431C133.463 12.3471 133.522 11.9931 133.522 11.6381C133.522 10.8701 133.285 10.3381 132.749 9.9251C132.273 9.5711 131.5 9.3351 130.489 9.3351H128.586V14.1191H128.705V14.1201Z" fill="#6311F4"/>
</svg>
